<?xml version="1.0" encoding="UTF-8" standalone="no"?>
<svg
   width="753.56055mm"
   height="687.91669mm"
   viewBox="0 0 753.56055 687.91669"
   version="1.1"
   id="svg1143"
   inkscape:export-filename="/home/skerung9d/Desktop/parah/logo 1.png"
   inkscape:export-xdpi="300"
   inkscape:export-ydpi="300"
   inkscape:version="1.1 (1:1.1+202105261517+ce6663b3b7)"
   sodipodi:docname="alvistack-stacked-white.svg"
   shape-rendering="crispEdges"
   xmlns:inkscape="http://www.inkscape.org/namespaces/inkscape"
   xmlns:sodipodi="http://sodipodi.sourceforge.net/DTD/sodipodi-0.dtd"
   xmlns="http://www.w3.org/2000/svg"
   xmlns:svg="http://www.w3.org/2000/svg"
   xmlns:rdf="http://www.w3.org/1999/02/22-rdf-syntax-ns#"
   xmlns:cc="http://creativecommons.org/ns#"
   xmlns:dc="http://purl.org/dc/elements/1.1/">
  <defs
     id="defs1137" />
  <sodipodi:namedview
     id="base"
     pagecolor="#ffffff"
     bordercolor="#747474"
     borderopacity="1"
     inkscape:pageopacity="0"
     inkscape:pageshadow="2"
     inkscape:zoom="0.044194174"
     inkscape:cx="701.44992"
     inkscape:cy="2703.9763"
     inkscape:document-units="mm"
     inkscape:current-layer="layer2"
     inkscape:document-rotation="0"
     showgrid="false"
     inkscape:snap-grids="false"
     inkscape:snap-to-guides="false"
     inkscape:window-width="1920"
     inkscape:window-height="1016"
     inkscape:window-x="0"
     inkscape:window-y="27"
     inkscape:window-maximized="1"
     showguides="true"
     inkscape:guide-bbox="true"
     inkscape:pagecheckerboard="false"
     height="101mm"
     width="318mm" />
  <metadata
     id="metadata1140">
    <rdf:RDF>
      <cc:Work
         rdf:about="">
        <dc:format>image/svg+xml</dc:format>
        <dc:type
           rdf:resource="http://purl.org/dc/dcmitype/StillImage" />
      </cc:Work>
    </rdf:RDF>
  </metadata>
  <g
     inkscape:groupmode="layer"
     id="layer2"
     inkscape:label="VERTICAL"
     style="display:inline"
     transform="translate(-287.37681,-315.68295)">
    <g
       id="g179"
       transform="matrix(0.79466455,0,0,0.79466455,59.008646,64.8209)"
       style="stroke-width:1.25839">
      <path
         d="m 385.7996,1178.608 q -2.56118,-7.5006 -5.30531,-14.8183 -2.74413,-7.3176 -5.30532,-15.0012 H 321.7699 q -2.56118,7.6836 -5.30531,15.1842 -2.56119,7.3177 -5.12238,14.6353 h -23.9654 q 7.13474,-20.3065 13.53771,-37.5031 6.40297,-17.1965 12.44005,-32.5637 6.22003,-15.3671 12.25712,-29.2707 6.03708,-13.9036 12.44005,-27.4413 h 21.7701 q 6.40297,13.5377 12.44006,27.4413 6.03708,13.9036 12.07417,29.2707 6.22003,15.3672 12.623,32.5637 6.58591,17.1966 13.72065,37.5031 z m -37.32016,-102.2645 q -4.20767,9.6959 -9.69593,23.5995 -5.30532,13.9036 -11.15946,30.1854 h 41.71077 q -5.85414,-16.2818 -11.3424,-30.3684 -5.48826,-14.0865 -9.51298,-23.4165 z"
         style="font-weight:500;font-size:182.942px;line-height:1.5;font-family:Ubuntu;-inkscape-font-specification:'Ubuntu Medium';text-align:start;letter-spacing:1.65758px;text-anchor:start;fill:#ffffff;stroke-width:11.3563"
         id="path30" />
      <path
         d="m 508.56444,1158.6674 v 19.9406 h -80.1286 v -126.7788 h 23.05069 v 106.8382 z"
         style="font-weight:500;font-size:182.942px;line-height:1.5;font-family:Ubuntu;-inkscape-font-specification:'Ubuntu Medium';text-align:start;letter-spacing:1.65758px;text-anchor:start;fill:#ffffff;stroke-width:11.3563"
         id="path32" />
      <path
         d="m 547.54188,1178.608 q -13.72065,-29.6366 -26.52659,-62.0173 -12.623,-32.3807 -23.59952,-64.7615 h 25.42894 q 4.39061,12.806 8.96416,26.1607 4.57355,13.3548 9.1471,26.3437 4.57355,12.8059 9.1471,24.8801 4.57355,12.0742 8.96416,22.136 4.20766,-10.0618 8.78121,-21.9531 4.57355,-12.0741 9.1471,-25.063 4.75649,-12.9889 9.33004,-26.3437 4.57355,-13.3547 8.78122,-26.1607 h 24.69717 q -11.15946,32.3808 -23.78246,64.7615 -12.623,32.3807 -26.34365,62.0173 z"
         style="font-weight:500;font-size:182.942px;line-height:1.5;font-family:Ubuntu;-inkscape-font-specification:'Ubuntu Medium';text-align:start;letter-spacing:1.65758px;text-anchor:start;fill:#ffffff;stroke-width:11.3563"
         id="path34" />
      <path
         d="m 637.9261,1051.8292 h 23.05069 V 1178.608 H 637.9261 Z"
         style="font-weight:500;font-size:182.942px;line-height:1.5;font-family:Ubuntu;-inkscape-font-specification:'Ubuntu Medium';text-align:start;letter-spacing:1.65758px;text-anchor:start;fill:#ffffff;stroke-width:11.3563"
         id="path36" />
      <path
         d="m 723.73695,1161.4115 q 12.44006,0 18.11126,-4.2077 5.6712,-4.2076 5.6712,-11.8912 0,-4.5736 -2.01236,-7.8665 -1.82942,-3.293 -5.48826,-5.8542 -3.4759,-2.7441 -8.59827,-4.9394 -5.12238,-2.3782 -11.70829,-4.5735 -6.58591,-2.3783 -12.80594,-5.1224 -6.03709,-2.9271 -10.79358,-7.1348 -4.57355,-4.2076 -7.50062,-10.0618 -2.74413,-5.8541 -2.74413,-14.0865 0,-17.1966 11.89123,-26.8925 11.89123,-9.8788 32.38073,-9.8788 11.89123,0 21.03833,2.7441 9.33005,2.5612 14.63536,5.6712 l -7.13473,18.6601 q -6.22003,-3.4759 -13.72065,-5.3053 -7.31768,-1.8295 -15.18419,-1.8295 -9.33004,0 -14.63536,3.8418 -5.12238,3.8418 -5.12238,10.7936 0,4.2077 1.64648,7.3177 1.82942,2.927 4.93944,5.3053 3.29295,2.3782 7.50062,4.3906 4.39061,2.0124 9.51298,3.8418 8.96416,3.2929 15.91596,6.7688 7.13473,3.293 11.89123,8.0495 4.93943,4.5735 7.50062,10.9765 2.56119,6.22 2.56119,15.1842 0,17.1965 -12.25712,26.7095 -12.07417,9.3301 -35.49075,9.3301 -7.8665,0 -14.45241,-1.0977 -6.40297,-0.9147 -11.52535,-2.3782 -4.93943,-1.4636 -8.59827,-2.9271 -3.65884,-1.6465 -5.85415,-2.9271 l 6.76886,-18.843 q 4.93943,2.7441 13.35476,5.4883 8.41533,2.7441 20.30656,2.7441 z"
         id="path38"
         style="font-weight:bold;font-size:182.942px;line-height:0;font-family:Ubuntu;-inkscape-font-specification:Ubuntu-Bold;text-align:center;text-anchor:middle;fill:#ffffff;stroke-width:11.3563" />
      <path
         d="m 881.80976,1051.8292 v 19.9407 h -38.96665 v 106.8381 h -23.23363 v -106.8381 h -38.96665 v -19.9407 z"
         id="path40"
         style="font-weight:bold;font-size:182.942px;line-height:0;font-family:Ubuntu;-inkscape-font-specification:Ubuntu-Bold;text-align:center;text-anchor:middle;fill:#ffffff;stroke-width:11.3563" />
      <path
         d="m 974.75493,1178.608 q -2.56119,-7.5006 -5.30532,-14.8183 -2.74413,-7.3176 -5.30532,-15.0012 h -53.41906 q -2.56119,7.6836 -5.30532,15.1842 -2.56119,7.3177 -5.12238,14.6353 h -23.9654 q 7.13474,-20.3065 13.53771,-37.5031 6.40297,-17.1965 12.44005,-32.5637 6.22003,-15.3671 12.25712,-29.2707 6.03708,-13.9036 12.44005,-27.4413 h 21.7701 q 6.40297,13.5377 12.44006,27.4413 6.03708,13.9036 12.07417,29.2707 6.22003,15.3672 12.623,32.5637 6.58591,17.1966 13.72065,37.5031 z m -37.32017,-102.2645 q -4.20767,9.6959 -9.69593,23.5995 -5.30532,13.9036 -11.15946,30.1854 h 41.71078 q -5.85415,-16.2818 -11.34241,-30.3684 -5.48826,-14.0865 -9.51298,-23.4165 z"
         id="path42"
         style="font-weight:bold;font-size:182.942px;line-height:0;font-family:Ubuntu;-inkscape-font-specification:Ubuntu-Bold;text-align:center;text-anchor:middle;fill:#ffffff;stroke-width:11.3563" />
      <path
         d="m 1070.6272,1181.3522 q -14.2694,0 -25.6118,-4.3906 -11.3424,-4.3907 -19.2089,-12.806 -7.8666,-8.5983 -12.0742,-20.8554 -4.2077,-12.2571 -4.2077,-28.173 0,-15.916 4.7565,-28.1731 4.9394,-12.2571 13.3548,-20.6725 8.4153,-8.5982 19.7577,-12.9888 11.3424,-4.3906 24.3313,-4.3906 7.8665,0 14.2695,1.2805 6.4029,1.0977 11.1594,2.5612 4.7565,1.4636 7.8665,3.11 3.1101,1.6465 4.3907,2.3783 l -6.7689,18.843 q -4.3906,-2.7441 -12.623,-5.1224 -8.0494,-2.5611 -17.5624,-2.5611 -8.2324,0 -15.3672,2.927 -7.1347,2.7442 -12.44,8.4154 -5.1224,5.6712 -8.0495,14.2694 -2.927,8.5983 -2.927,19.9407 0,10.0618 2.1953,18.4772 2.3782,8.4153 7.1347,14.6353 4.7565,6.0371 12.0742,9.513 7.3177,3.293 17.5624,3.293 12.2571,0 19.9407,-2.3783 7.6836,-2.5612 11.8912,-4.7565 l 6.22,18.843 q -2.1953,1.4636 -6.037,2.9271 -3.6589,1.4636 -8.7813,2.9271 -5.1223,1.2806 -11.5253,2.0124 -6.403,0.9147 -13.7207,0.9147 z"
         id="path44"
         style="font-weight:bold;font-size:182.942px;line-height:0;font-family:Ubuntu;-inkscape-font-specification:Ubuntu-Bold;text-align:center;text-anchor:middle;fill:#ffffff;stroke-width:11.3563" />
      <path
         d="m 1208.3934,1178.608 q -4.7565,-7.3176 -10.9765,-15.3671 -6.22,-8.0494 -13.1718,-15.5501 -6.7689,-7.5006 -14.0866,-14.2694 -7.3176,-6.7689 -14.4524,-11.7083 v 56.8949 h -23.0507 v -126.7788 h 23.0507 v 52.3214 q 6.0371,-6.037 12.623,-12.8059 6.5859,-6.9518 12.9889,-13.9036 6.5859,-7.1347 12.4401,-13.7206 5.8541,-6.586 10.6106,-11.8913 h 27.6242 q -6.037,6.9518 -12.8059,14.4524 -6.7688,7.5007 -13.9036,15.1842 -7.1347,7.5007 -14.4524,15.0013 -7.1347,7.5006 -14.0865,14.2694 7.6835,5.8542 15.55,13.7207 8.0495,7.6836 15.733,16.6477 7.6836,8.7812 14.6354,18.4772 7.1347,9.5129 12.9889,19.0259 z"
         id="path46"
         style="font-weight:bold;font-size:182.942px;line-height:0;font-family:Ubuntu;-inkscape-font-specification:Ubuntu-Bold;text-align:center;text-anchor:middle;fill:#ffffff;stroke-width:11.3563" />
      <path
         d="m 980.65226,662.85846 c -46.91103,-82.306 -122.27352,-146.2371 -212.79318,-178.32966 -1.1008,-0.42339 -6.08175,-2.95981 -14.81847,-2.87902 -16.59598,0.15344 -30.65306,10.49994 -36.07238,25.06438 L 581.66469,931.23823 c -8.72172,27.35065 -34.29416,47.24974 -64.52383,47.24974 -37.51189,0 -67.82624,-30.39903 -67.82624,-67.74157 0,-31.81769 89.75056,-324.05074 141.31559,-461.35854 5.80656,-15.46172 12.81901,-30.46213 20.06844,-45.30217 1.57416,-3.22238 5.08062,-9.48382 5.08062,-9.48382 0,0 3.04142,-5.00849 4.65723,-7.45157 1.95676,-2.95858 3.93753,-5.9075 6.09674,-8.72173 3.23165,-4.21199 6.52013,-8.21366 10.24591,-12.19348 20.83053,-22.52407 48.18119,-38.86672 79.0036,-46.14894 11.85477,-2.87901 24.21761,-4.4032 36.91915,-4.4032 12.19348,0 23.77511,1.61196 35.39497,4.0645 8.27212,1.74594 19.64505,5.33464 24.21761,7.53625 0.42338,0.16935 5.73996,2.45744 8.55237,3.81046 2.43449,1.1712 4.81418,2.45375 7.19754,3.72578 1.70513,0.91006 3.38708,1.77822 5.08062,2.79434 2.28628,1.35483 4.55654,2.75984 6.77415,4.23385 0.97829,0.65024 1.94757,1.35483 2.87902,2.03225 3.21772,2.11692 6.24781,4.45045 9.22979,6.85883 39.64087,32.01574 61.13676,98.64865 61.13676,98.64865 z"
         style="fill:#ffffff;fill-opacity:1;fill-rule:nonzero;stroke:none;stroke-width:10.6557"
         id="path84-1-8-8-9-7-3"
         sodipodi:nodetypes="ccsccssaacaaccsacaacacscc" />
      <path
         d="m 1050.6854,910.7464 c 0,37.34254 -30.399,67.74156 -67.82624,67.74156 -15.0725,0 -29.12887,-4.91126 -40.39091,-13.29428 -11.26203,-8.46769 -19.89908,-20.23779 -24.2176,-33.95546 h -0.0847 L 852.54133,723.52566 c 81.96729,23.20148 129.55574,54.53195 180.19257,123.71303 v 0.0847 c 1.4395,2.79434 2.7096,5.58868 3.8951,8.38302 0,0 8.0999,22.67948 10.8387,34.37884 1.5887,6.78661 3.2177,13.37896 3.2177,20.66118"
         style="fill:#ffffff;fill-opacity:1;fill-rule:nonzero;stroke:none;stroke-width:10.6557"
         id="path88-5-2-6-4-1-9"
         sodipodi:nodetypes="cscccccccac" />
      <path
         d="m 1031.4708,836.34907 v 0.0847 C 980.83398,767.25268 933.24553,735.9222 851.27824,712.72072 c 0,0 -56.47952,-178.16031 -60.62869,-191.53927 -0.59274,-1.77822 -2.79434,-9.56849 -5.92739,-13.9717 -3.97982,-5.75803 -9.9072,-10.24591 -16.68136,-12.95557 90.51966,32.09257 165.88215,96.02366 212.79318,178.32966 0,0 50.55212,162.07169 50.63682,163.76523"
         style="fill:#ffffff;fill-opacity:1;fill-rule:nonzero;stroke:none;stroke-width:10.6557"
         id="path92-1-2-6-1-9-4"
         sodipodi:nodetypes="cccccccc" />
    </g>
  </g>
</svg>
