<?xml version="1.0" encoding="UTF-8" standalone="no"?>
<svg
   width="741.36548mm"
   height="132.29167mm"
   viewBox="0 0 741.36548 132.29167"
   version="1.1"
   id="svg1143"
   inkscape:export-filename="/home/skerung9d/Desktop/parah/logo 1.png"
   inkscape:export-xdpi="300"
   inkscape:export-ydpi="300"
   inkscape:version="1.1 (1:1.1+202105261517+ce6663b3b7)"
   sodipodi:docname="alvistack-horizontal-black.svg"
   xmlns:inkscape="http://www.inkscape.org/namespaces/inkscape"
   xmlns:sodipodi="http://sodipodi.sourceforge.net/DTD/sodipodi-0.dtd"
   xmlns="http://www.w3.org/2000/svg"
   xmlns:svg="http://www.w3.org/2000/svg"
   xmlns:rdf="http://www.w3.org/1999/02/22-rdf-syntax-ns#"
   xmlns:cc="http://creativecommons.org/ns#"
   xmlns:dc="http://purl.org/dc/elements/1.1/">
  <defs
     id="defs1137" />
  <sodipodi:namedview
     id="base"
     pagecolor="#ffffff"
     bordercolor="#666666"
     borderopacity="1.0"
     inkscape:pageopacity="0"
     inkscape:pageshadow="2"
     inkscape:zoom="0.044194174"
     inkscape:cx="1289.7628"
     inkscape:cy="2341.9376"
     inkscape:document-units="mm"
     inkscape:current-layer="layer2"
     inkscape:document-rotation="0"
     showgrid="false"
     inkscape:snap-grids="false"
     inkscape:snap-to-guides="false"
     inkscape:window-width="1920"
     inkscape:window-height="1016"
     inkscape:window-x="0"
     inkscape:window-y="27"
     inkscape:window-maximized="1"
     showguides="true"
     inkscape:guide-bbox="true"
     inkscape:pagecheckerboard="0"
     height="101mm"
     width="318mm" />
  <metadata
     id="metadata1140">
    <rdf:RDF>
      <cc:Work
         rdf:about="">
        <dc:format>image/svg+xml</dc:format>
        <dc:type
           rdf:resource="http://purl.org/dc/dcmitype/StillImage" />
      </cc:Work>
    </rdf:RDF>
  </metadata>
  <g
     inkscape:groupmode="layer"
     id="layer2"
     inkscape:label="VERTICAL"
     style="display:inline"
     transform="translate(-273.74696,-367.70833)">
    <g
       id="g181"
       transform="matrix(0.49999999,0,0,0.49999999,136.87348,183.85417)"
       style="stroke-width:2"
       inkscape:export-filename="/home/hswong3i/Documents/alvistack/ansible-collection-kubernetes/docs/images/horizontal/black/alvistack-horizontal-black.png"
       inkscape:export-xdpi="95.999992"
       inkscape:export-ydpi="95.999992">
      <path
         d="m 489.56464,510.72635 c -19.32487,-33.90574 -50.37025,-60.24198 -87.65958,-73.46243 -0.45347,-0.17441 -0.87206,-0.34882 -1.32553,-0.48835 0,0 -1.50942,-0.74852 -4.91843,-0.69765 -6.8362,0.102 -12.48791,4.32542 -14.72039,10.3252 l -52.67249,166.42414 c -3.59289,11.26703 -14.12739,19.46441 -26.58042,19.46441 -15.45293,0 -27.94084,-12.5228 -27.94084,-27.90596 0,-2.96501 0.48835,-5.82537 1.32553,-8.51131 L 328.8961,422.78771 c 2.40689,-7.56949 9.47417,-21.18142 13.22045,-27.0339 1.66332,-2.59845 4.25566,-5.58119 5.79048,-7.22066 8.58109,-9.27873 19.84812,-16.01104 32.54533,-19.01093 4.88354,-1.18601 9.97637,-1.81389 15.20874,-1.81389 5.02307,0 9.87173,0.73253 14.58086,1.81389 3.06661,0.75681 13.39577,4.4964 15.06922,5.33701 1.18084,0.59316 2.35174,1.20942 3.48824,1.88365 1.35913,0.80632 2.67897,1.67934 3.9766,2.5813 1.29658,0.90124 2.57377,1.83335 3.80219,2.82548 16.32995,13.1888 25.18512,40.63805 25.18512,40.63805 z"
         style="fill:#000000;fill-opacity:1;fill-rule:nonzero;stroke:none;stroke-width:6.97648"
         id="path84-1-8-8-5-4-5-6"
         sodipodi:nodetypes="cccsccssccsccscaaascc" />
      <path
         d="m 517.81981,604.38439 c 0,15.38316 -12.5228,27.90596 -27.94084,27.90596 -6.20907,0 -11.99956,-2.02319 -16.63892,-5.47655 -4.63937,-3.48824 -8.19738,-8.3369 -9.97638,-13.98786 h -0.0349 l -27.0339,-85.56663 c 33.76621,9.55779 53.37014,22.46429 74.22984,50.96325 v 0.0349 c 0.593,1.15112 1.11624,2.30224 1.60459,3.45336 0,0 3.33674,9.34275 4.46496,14.16227 0.65446,2.79573 1.32553,5.51143 1.32553,8.51132"
         style="fill:#666666;fill-opacity:1;fill-rule:nonzero;stroke:none;stroke-width:6.97648"
         id="path88-5-2-6-5-1-4-4"
         sodipodi:nodetypes="cscccccccac" />
      <path
         d="m 510.42433,578.18838 v 0.0349 c -20.8597,-28.49895 -40.46364,-41.40546 -74.22984,-50.96325 0,0 -23.26659,-73.39266 -24.97583,-78.90409 -0.24418,-0.73253 -1.15112,-3.94171 -2.44177,-5.7556 -1.63948,-2.37201 -4.08125,-4.22078 -6.87184,-5.33701 37.28933,13.22044 68.3347,39.55669 87.65958,73.46242 0,0 20.82482,66.765 20.8597,67.46265"
         style="fill:#333333;fill-opacity:1;fill-rule:nonzero;stroke:none;stroke-width:6.97648"
         id="path92-1-2-6-11-1-30-0"
         sodipodi:nodetypes="cccccccc" />
      <path
         d="m 738.72897,577.64508 q -3.06718,-8.98244 -6.35344,-17.7458 -3.28626,-8.76336 -6.35343,-17.96489 h -63.97253 q -3.06718,9.20153 -6.35344,18.18397 -3.06717,8.76336 -6.13435,17.52672 h -28.7 q 8.54427,-24.31832 16.21221,-44.91222 7.66794,-20.5939 14.89772,-38.99695 7.44885,-18.40306 14.67862,-35.05344 7.22978,-16.65039 14.89772,-32.8626 h 26.07099 q 7.66794,16.21221 14.89771,32.8626 7.22978,16.65038 14.45955,35.05344 7.44885,18.40305 15.11679,38.99695 7.88703,20.5939 16.4313,44.91222 z M 694.03583,455.17712 q -5.03893,11.61146 -11.61145,28.26184 -6.35343,16.65038 -13.36412,36.14886 h 49.95115 q -7.01069,-19.49848 -13.58321,-36.36794 -6.57252,-16.86947 -11.39237,-28.04276 z"
         style="font-weight:500;font-size:219.084px;line-height:0.91;font-family:Ubuntu;-inkscape-font-specification:'Ubuntu Medium';text-align:start;letter-spacing:1.98506px;text-anchor:start;stroke-width:21.6146"
         id="path33" />
      <path
         d="m 885.74723,553.76492 v 23.88016 h -95.9588 V 425.81987 h 27.60459 v 127.94505 z"
         style="font-weight:500;font-size:219.084px;line-height:0.91;font-family:Ubuntu;-inkscape-font-specification:'Ubuntu Medium';text-align:start;letter-spacing:1.98506px;text-anchor:start;stroke-width:21.6146"
         id="path35" />
      <path
         d="m 932.42506,577.64508 q -16.4313,-35.49161 -31.76718,-74.26948 -15.11679,-38.77786 -28.26183,-77.55573 h 30.45267 q 5.25802,15.33588 10.73512,31.32901 5.4771,15.99313 10.9542,31.5481 5.4771,15.33588 10.9542,29.79542 5.4771,14.45954 10.73511,26.50916 5.03894,-12.04962 10.51604,-26.29008 5.4771,-14.45954 10.9542,-30.0145 5.69618,-15.55497 11.17328,-31.5481 5.4771,-15.99313 10.51603,-31.32901 h 29.5763 q -13.3641,38.77787 -28.48088,77.55573 -15.11679,38.77787 -31.54809,74.26948 z"
         style="font-weight:500;font-size:219.084px;line-height:0.91;font-family:Ubuntu;-inkscape-font-specification:'Ubuntu Medium';text-align:start;letter-spacing:1.98506px;text-anchor:start;stroke-width:21.6146"
         id="path37" />
      <path
         d="m 1040.6656,425.81987 h 27.6046 v 151.82521 h -27.6046 z"
         style="font-weight:500;font-size:219.084px;line-height:0.91;font-family:Ubuntu;-inkscape-font-specification:'Ubuntu Medium';text-align:start;letter-spacing:1.98506px;text-anchor:start;stroke-width:21.6146"
         id="path39" />
      <path
         d="m 1143.4292,557.05118 q 14.8977,0 21.6893,-5.03893 6.7917,-5.03893 6.7917,-14.24046 0,-5.4771 -2.41,-9.42061 -2.1908,-3.94351 -6.5725,-7.01069 -4.1626,-3.28626 -10.2969,-5.91527 -6.1344,-2.84809 -14.0214,-5.4771 -7.887,-2.84809 -15.3359,-6.13435 -7.2298,-3.50534 -12.926,-8.54427 -5.4771,-5.03894 -8.9824,-12.04962 -3.2863,-7.01069 -3.2863,-16.86947 0,-20.5939 14.2405,-32.20535 14.2405,-11.83054 38.7779,-11.83054 14.2404,0 25.1946,3.28626 11.1733,3.06718 17.5268,6.79161 l -8.5443,22.34657 q -7.4489,-4.1626 -16.4313,-6.35344 -8.7634,-2.19084 -18.184,-2.19084 -11.1733,0 -17.5267,4.60076 -6.1344,4.60077 -6.1344,12.92596 0,5.03893 1.9718,8.76336 2.1908,3.50534 5.9153,6.35344 3.9435,2.84809 8.9824,5.25801 5.258,2.40993 11.3924,4.60077 10.7351,3.94351 19.0603,8.1061 8.5443,3.94352 14.2404,9.6397 5.9153,5.4771 8.9825,13.14504 3.0672,7.44886 3.0672,18.18397 0,20.5939 -14.6787,31.98627 -14.4595,11.17328 -42.5023,11.17328 -9.4206,0 -17.3076,-1.3145 -7.6679,-1.09542 -13.8023,-2.8481 -5.9153,-1.75267 -10.2969,-3.50534 -4.3817,-1.97176 -7.0107,-3.50534 l 8.1061,-22.56566 q 5.9152,3.28626 15.9931,6.57252 10.0779,3.28626 24.3183,3.28626 z"
         style="font-weight:500;font-size:219.084px;line-height:0.91;font-family:Ubuntu;-inkscape-font-specification:'Ubuntu Medium';text-align:start;letter-spacing:1.98506px;text-anchor:start;stroke-width:21.6146"
         id="path41" />
      <path
         d="m 1332.7309,425.81987 v 23.88015 h -46.6649 v 127.94506 h -27.8236 V 449.70002 h -46.6649 v -23.88015 z"
         style="font-weight:500;font-size:219.084px;line-height:0.91;font-family:Ubuntu;-inkscape-font-specification:'Ubuntu Medium';text-align:start;letter-spacing:1.98506px;text-anchor:start;stroke-width:21.6146"
         id="path43" />
      <path
         d="m 1444.0383,577.64508 q -3.0672,-8.98244 -6.3534,-17.7458 -3.2863,-8.76336 -6.3535,-17.96489 h -63.9725 q -3.0672,9.20153 -6.3534,18.18397 -3.0672,8.76336 -6.1344,17.52672 h -28.7 q 8.5443,-24.31832 16.2122,-44.91222 7.668,-20.5939 14.8977,-38.99695 7.4489,-18.40306 14.6787,-35.05344 7.2297,-16.65039 14.8977,-32.8626 h 26.071 q 7.6679,16.21221 14.8977,32.8626 7.2298,16.65038 14.4595,35.05344 7.4489,18.40305 15.1168,38.99695 7.887,20.5939 16.4313,44.91222 z m -44.6931,-122.46796 q -5.039,11.61146 -11.6115,28.26184 -6.3534,16.65038 -13.3641,36.14886 h 49.9511 q -7.0107,-19.49848 -13.5832,-36.36794 -6.5725,-16.86947 -11.3923,-28.04276 z"
         style="font-weight:500;font-size:219.084px;line-height:0.91;font-family:Ubuntu;-inkscape-font-specification:'Ubuntu Medium';text-align:start;letter-spacing:1.98506px;text-anchor:start;stroke-width:21.6146"
         id="path45" />
      <path
         d="m 1558.8512,580.93134 q -17.0886,0 -30.6718,-5.25802 -13.5832,-5.25801 -23.0038,-15.33588 -9.4206,-10.29694 -14.4595,-24.97557 -5.039,-14.67863 -5.039,-33.73894 0,-19.06031 5.6962,-33.73893 5.9153,-14.67863 15.9931,-24.7565 10.0779,-10.29694 23.6611,-15.55496 13.5832,-5.25802 29.1382,-5.25802 9.4206,0 17.0885,1.53359 7.668,1.31451 13.3642,3.06718 5.6961,1.75267 9.4206,3.72443 3.7244,1.97175 5.258,2.84809 l -8.1061,22.56565 q -5.258,-3.28626 -15.1168,-6.13435 -9.6397,-3.06718 -21.0321,-3.06718 -9.8588,0 -18.403,3.50535 -8.5443,3.28626 -14.8978,10.07786 -6.1343,6.7916 -9.6396,17.08855 -3.5054,10.29695 -3.5054,23.88016 0,12.04962 2.629,22.12748 2.8481,10.07787 8.5443,17.52672 5.6962,7.22977 14.4595,11.39237 8.7634,3.94351 21.0321,3.94351 14.6786,0 23.8802,-2.84809 9.2015,-3.06718 14.2404,-5.69618 l 7.4489,22.56565 q -2.629,1.75267 -7.2298,3.50534 -4.3817,1.75267 -10.516,3.50535 -6.1344,1.53358 -13.8023,2.40992 -7.668,1.09542 -16.4313,1.09542 z"
         style="font-weight:500;font-size:219.084px;line-height:0.91;font-family:Ubuntu;-inkscape-font-specification:'Ubuntu Medium';text-align:start;letter-spacing:1.98506px;text-anchor:start;stroke-width:21.6146"
         id="path47" />
      <path
         d="m 1723.8344,577.64508 q -5.6962,-8.76336 -13.145,-18.40306 -7.4489,-9.63969 -15.7741,-18.62214 -8.1061,-8.98244 -16.8695,-17.08855 -8.7633,-8.10611 -17.3076,-14.02137 v 68.13512 h -27.6046 V 425.81987 h 27.6046 v 62.65802 q 7.2298,-7.22977 15.1168,-15.33588 7.887,-8.32519 15.555,-16.65038 7.887,-8.54428 14.8977,-16.4313 7.0107,-7.88703 12.7068,-14.24046 h 33.0817 q -7.2297,8.32519 -15.3359,17.30763 -8.1061,8.98245 -16.6503,18.18398 -8.5443,8.98244 -17.3077,17.96488 -8.5442,8.98245 -16.8694,17.08856 9.2015,7.01068 18.6221,16.4313 9.6397,9.20152 18.8412,19.93664 9.2016,10.51603 17.5267,22.12748 8.5443,11.39237 15.555,22.78474 z"
         style="font-weight:500;font-size:219.084px;line-height:0.91;font-family:Ubuntu;-inkscape-font-specification:'Ubuntu Medium';text-align:start;letter-spacing:1.98506px;text-anchor:start;stroke-width:21.6146"
         id="path49" />
    </g>
  </g>
</svg>
