<?xml version="1.0" encoding="UTF-8" standalone="no"?>
<svg
   width="480.1192mm"
   height="529.16669mm"
   viewBox="0 0 480.1192 529.16669"
   version="1.1"
   id="svg1143"
   inkscape:export-filename="/home/skerung9d/Desktop/parah/logo 1.png"
   inkscape:export-xdpi="300"
   inkscape:export-ydpi="300"
   inkscape:version="1.1 (1:1.1+202105261517+ce6663b3b7)"
   sodipodi:docname="alvistack-icon-white.svg"
   xmlns:inkscape="http://www.inkscape.org/namespaces/inkscape"
   xmlns:sodipodi="http://sodipodi.sourceforge.net/DTD/sodipodi-0.dtd"
   xmlns="http://www.w3.org/2000/svg"
   xmlns:svg="http://www.w3.org/2000/svg"
   xmlns:rdf="http://www.w3.org/1999/02/22-rdf-syntax-ns#"
   xmlns:cc="http://creativecommons.org/ns#"
   xmlns:dc="http://purl.org/dc/elements/1.1/">
  <defs
     id="defs1137" />
  <sodipodi:namedview
     id="base"
     pagecolor="#ffffff"
     bordercolor="#666666"
     borderopacity="1.0"
     inkscape:pageopacity="0"
     inkscape:pageshadow="2"
     inkscape:zoom="0.044194174"
     inkscape:cx="1798.8796"
     inkscape:cy="3224.4069"
     inkscape:document-units="mm"
     inkscape:current-layer="layer2"
     inkscape:document-rotation="0"
     showgrid="false"
     inkscape:snap-grids="false"
     inkscape:snap-to-guides="false"
     inkscape:window-width="1920"
     inkscape:window-height="1016"
     inkscape:window-x="0"
     inkscape:window-y="27"
     inkscape:window-maximized="1"
     showguides="true"
     inkscape:guide-bbox="true"
     inkscape:pagecheckerboard="0"
     height="101mm"
     width="318mm" />
  <metadata
     id="metadata1140">
    <rdf:RDF>
      <cc:Work
         rdf:about="">
        <dc:format>image/svg+xml</dc:format>
        <dc:type
           rdf:resource="http://purl.org/dc/dcmitype/StillImage" />
      </cc:Work>
    </rdf:RDF>
  </metadata>
  <g
     inkscape:groupmode="layer"
     id="layer2"
     inkscape:label="VERTICAL"
     style="display:inline"
     transform="translate(-359.90307,-320.052)">
    <g
       id="g138"
       transform="matrix(0.6153845,0,0,0.6153845,138.4243,123.09696)"
       style="stroke-width:1.625"
       inkscape:export-filename="/home/hswong3i/Documents/alvistack/ansible-collection-kubernetes/docs/images/icon/white/alvistack-icon-white.png"
       inkscape:export-xdpi="95.999992"
       inkscape:export-ydpi="95.999992">
      <path
         d="M 1049.2387,770.46324 C 988.37825,663.68282 890.60606,580.74124 773.16957,539.10566 c -1.42814,-0.54928 -7.89021,-3.83993 -19.22487,-3.73512 -21.53095,0.19906 -39.76802,13.6222 -46.79883,32.5175 L 531.60862,1118.6481 c -11.3152,35.4836 -44.49184,61.2999 -83.71057,61.2999 -48.66639,0 -87.99498,-39.4385 -87.99498,-87.8851 0,-41.279 116.43869,-420.41014 183.33705,-598.54764 7.53318,-20.05941 16.63085,-39.52033 26.03597,-58.77318 2.04224,-4.18058 6.59138,-12.30392 6.59138,-12.30392 0,0 3.94581,-6.4978 6.0421,-9.66736 2.53862,-3.83834 5.10839,-7.66414 7.90967,-11.31521 4.1926,-5.46446 8.45894,-10.65607 13.29262,-15.81932 27.02467,-29.2218 62.50829,-50.42409 102.49602,-59.87174 15.3799,-3.73511 31.41893,-5.71253 47.89739,-5.71253 15.81932,0 30.84486,2.09129 45.91998,5.27311 10.73191,2.26512 25.48668,6.92095 31.41893,9.77722 0.54928,0.21971 7.44679,3.18818 11.09549,4.94353 3.15841,1.51947 6.24572,3.1834 9.3378,4.83369 2.21216,1.18067 4.39425,2.30698 6.59138,3.62526 2.96612,1.7577 5.91147,3.58049 8.78851,5.49282 1.26919,0.84358 2.5267,1.7577 3.73512,2.63655 4.17454,2.74641 8.10566,5.77383 11.97435,8.89837 51.42844,41.5359 79.31632,127.98271 79.31632,127.98271 z"
         style="fill:#ffffff;fill-opacity:1;fill-rule:nonzero;stroke:none;stroke-width:17.8516"
         id="path84-1-8-8-9-7-3"
         sodipodi:nodetypes="ccsccssaacaaccsacaacacscc" />
      <path
         d="m 1140.0969,1092.0629 c 0,48.4467 -39.4384,87.8851 -87.995,87.8851 -19.5544,0 -37.7906,-6.3717 -52.40148,-17.2474 -14.6109,-10.9857 -25.81625,-26.2557 -31.41893,-44.0525 h -0.10986 L 883.03292,849.1704 c 106.341,30.10065 168.08028,70.74752 233.77438,160.5002 v 0.1099 c 1.8676,3.6252 3.5154,7.2505 5.0534,10.8757 0,0 10.5085,29.4235 14.0617,44.6017 2.0611,8.8047 4.1745,17.3573 4.1745,26.805"
         style="fill:#ffffff;fill-opacity:1;fill-rule:nonzero;stroke:none;stroke-width:17.8516"
         id="path88-5-2-6-4-1-9"
         sodipodi:nodetypes="cscccccccac" />
      <path
         d="m 1115.1686,995.54283 v 0.10986 c -65.6941,-89.75268 -127.43342,-130.39955 -233.77442,-160.5002 0,0 -73.27422,-231.13787 -78.65718,-248.49518 -0.769,-2.30699 -3.62526,-12.41377 -7.68995,-18.12631 -5.16325,-7.47023 -12.8532,-13.29262 -21.64171,-16.80803 117.43649,41.63558 215.20869,124.57716 276.06916,231.35758 0,0 65.5842,210.26515 65.6941,212.46228"
         style="fill:#ffffff;fill-opacity:1;fill-rule:nonzero;stroke:none;stroke-width:17.8516"
         id="path92-1-2-6-1-9-4"
         sodipodi:nodetypes="cccccccc" />
    </g>
  </g>
</svg>
