<?xml version="1.0" encoding="UTF-8" standalone="no"?>
<svg
   width="2000mm"
   height="1000mm"
   viewBox="0 0 2000 1000"
   version="1.1"
   id="svg1143"
   inkscape:export-filename="/home/skerung9d/Desktop/parah/logo 1.png"
   inkscape:export-xdpi="300"
   inkscape:export-ydpi="300"
   inkscape:version="1.1 (c68e22c387, 2021-05-23)"
   sodipodi:docname="alvistack-horizontal-white.svg.svg"
   xmlns:inkscape="http://www.inkscape.org/namespaces/inkscape"
   xmlns:sodipodi="http://sodipodi.sourceforge.net/DTD/sodipodi-0.dtd"
   xmlns="http://www.w3.org/2000/svg"
   xmlns:svg="http://www.w3.org/2000/svg"
   xmlns:rdf="http://www.w3.org/1999/02/22-rdf-syntax-ns#"
   xmlns:cc="http://creativecommons.org/ns#"
   xmlns:dc="http://purl.org/dc/elements/1.1/">
  <defs
     id="defs1137" />
  <sodipodi:namedview
     id="base"
     pagecolor="#ffffff"
     bordercolor="#666666"
     borderopacity="1.0"
     inkscape:pageopacity="0"
     inkscape:pageshadow="2"
     inkscape:zoom="0.0625"
     inkscape:cx="2376"
     inkscape:cy="2264"
     inkscape:document-units="mm"
     inkscape:current-layer="layer2"
     inkscape:document-rotation="0"
     showgrid="false"
     inkscape:snap-grids="false"
     inkscape:snap-to-guides="false"
     inkscape:window-width="1920"
     inkscape:window-height="1017"
     inkscape:window-x="-8"
     inkscape:window-y="-8"
     inkscape:window-maximized="1"
     showguides="true"
     inkscape:guide-bbox="true"
     inkscape:pagecheckerboard="0"
     height="101mm"
     width="318mm" />
  <metadata
     id="metadata1140">
    <rdf:RDF>
      <cc:Work
         rdf:about="">
        <dc:format>image/svg+xml</dc:format>
        <dc:type
           rdf:resource="http://purl.org/dc/dcmitype/StillImage" />
      </cc:Work>
    </rdf:RDF>
  </metadata>
  <g
     inkscape:groupmode="layer"
     id="layer2"
     inkscape:label="VERTICAL"
     style="display:inline">
    <text
       style="font-variant:normal;font-weight:bold;font-stretch:normal;font-size:9.37892px;line-height:0.91;font-family:Ubuntu;-inkscape-font-specification:Ubuntu-Bold;text-align:center;writing-mode:lr-tb;text-anchor:middle;display:inline;fill:#000000;fill-opacity:1;fill-rule:nonzero;stroke:none;stroke-width:0.1;stroke-miterlimit:4;stroke-dasharray:none"
       id="text32-0-4-2-3-2-5-4-8-8-2-5-0-2-7-5-8-2-8-0"
       x="148.55606"
       y="272.29227"><tspan
         sodipodi:role="line"
         id="tspan14-3-7-1-6-2-5-43-4-48-0-5-93-3-09-7-8-6-4-1"
         style="font-style:normal;font-variant:normal;font-weight:500;font-stretch:normal;font-size:9.37892px;font-family:Ubuntu;-inkscape-font-specification:'Ubuntu Medium';text-align:center;letter-spacing:0.08498px;text-anchor:middle;stroke-width:0.1;stroke-miterlimit:4;stroke-dasharray:none"
         x="148.55606"
         y="272.29227" /><tspan
         style="font-style:normal;font-variant:normal;font-weight:500;font-stretch:normal;font-size:9.37892px;font-family:Ubuntu;-inkscape-font-specification:'Ubuntu Medium';text-align:center;letter-spacing:0.08498px;text-anchor:middle;stroke-width:0.1;stroke-miterlimit:4;stroke-dasharray:none"
         sodipodi:role="line"
         id="tspan1150-6-9-7-8-4-0-5-1-29-4-6-7-3-4-9-7-3-0"
         x="148.55606"
         y="281.44659" /></text>
    <g
       id="g379766-3-4"
       transform="matrix(1.0892272,0,0,1.0892272,743.07078,397.05828)"
       style="display:inline;fill:#ffffff">
      <g
         id="g82-2-9-7-0-4-3"
         transform="matrix(3.1032938,0,0,-3.1032938,-234.32384,101.26205)"
         style="fill:#ffffff">
        <path
           d="m 0,0 c -5.54,9.72 -14.44,17.27 -25.13,21.06 -0.13,0.05 -0.718229,0.349541 -1.75,0.34 -1.959917,-0.01812 -3.62,-1.24 -4.26,-2.96 l -15.978791,-50.134547 c -1.03,-3.23 -4.05,-5.58 -7.62,-5.58 -4.43,0 -8.01,3.59 -8.01,8 0,3.757539 10.599172,38.26906 16.688791,54.484547 0.68573,1.825966 1.513872,3.597453 2.37,5.35 0.185901,0.38055 0.6,1.12 0.6,1.12 0,0 0.359179,0.591482 0.55,0.88 0.231085,0.349396 0.465006,0.697651 0.72,1.03 0.381644,0.497419 0.77,0.97 1.21,1.44 2.46,2.66 5.69,4.59 9.33,5.45 1.4,0.34 2.86,0.52 4.36,0.52 1.44,0 2.807743,-0.190366 4.18,-0.48 0.976904,-0.206189 2.32,-0.63 2.86,-0.89 0.05,-0.02 0.677866,-0.290214 1.01,-0.45 0.287503,-0.138314 0.568535,-0.289778 0.85,-0.44 0.201369,-0.107474 0.4,-0.21 0.6,-0.33 0.27,-0.16 0.538109,-0.325925 0.8,-0.5 0.115531,-0.07679 0.23,-0.16 0.34,-0.24 0.38,-0.25 0.737841,-0.52558 1.09,-0.81 4.681424,-3.780927 7.22,-11.65 7.22,-11.65 z"
           style="fill:#ffffff;fill-opacity:1;fill-rule:nonzero;stroke:none"
           id="path84-1-8-8-9-7-3"
           sodipodi:nodetypes="ccsccssaacaaccsacaacacscc" />
      </g>
      <g
         id="g86-0-7-8-0-2-6"
         transform="matrix(3.1032938,0,0,-3.1032938,-208.65765,192.10957)"
         style="fill:#ffffff">
        <path
           d="m 0,0 c 0,-4.41 -3.59,-8 -8.01,-8 -1.78,0 -3.44,0.58 -4.77,1.57 -1.33,1 -2.35,2.39 -2.86,4.01 h -0.01 L -23.4,22.11 C -13.72,19.37 -8.1,15.67 -2.12,7.5 V 7.49 c 0.17,-0.33 0.32,-0.66 0.46,-0.99 0,0 0.95656672,-2.6783537 1.28,-4.06 C -0.19238163,1.6385295 0,0.86 0,0"
           style="fill:#ffffff;fill-opacity:1;fill-rule:nonzero;stroke:none"
           id="path88-5-2-6-4-1-9"
           sodipodi:nodetypes="cscccccccac" />
      </g>
      <g
         id="g90-1-8-04-0-7-0"
         transform="matrix(3.1032938,0,0,-3.1032938,-215.69954,164.84397)"
         style="fill:#ffffff">
        <path
           d="m 0,0 v -0.01 c -5.98,8.17 -11.6,11.87 -21.28,14.61 0,0 -6.67,21.04 -7.16,22.62 -0.07,0.21 -0.33,1.13 -0.7,1.65 -0.47,0.68 -1.17,1.21 -1.97,1.53 10.69,-3.79 19.59,-11.34 25.13,-21.06 0,0 5.97,-19.14 5.98,-19.34"
           style="fill:#ffffff;fill-opacity:1;fill-rule:nonzero;stroke:none"
           id="path92-1-2-6-1-9-4"
           sodipodi:nodetypes="cccccccc" />
      </g>
    </g>
    <text
       style="font-variant:normal;font-weight:bold;font-stretch:normal;font-size:219.084px;line-height:0.91;font-family:Ubuntu;-inkscape-font-specification:Ubuntu-Bold;text-align:center;writing-mode:lr-tb;text-anchor:middle;display:inline;fill:#ffffff;fill-opacity:1;fill-rule:nonzero;stroke:none;stroke-width:10.8073"
       id="text32-0-4-2-3-2-5-4-8-1-9-2-5-8-3-8"
       x="619.76636"
       y="577.64508"><tspan
         sodipodi:role="line"
         id="tspan14-3-7-1-6-2-5-43-4-3-0-5-62-9-6-0"
         style="font-style:normal;font-variant:normal;font-weight:500;font-stretch:normal;font-size:219.084px;font-family:Ubuntu;-inkscape-font-specification:'Ubuntu Medium';text-align:start;letter-spacing:1.98506px;text-anchor:start;stroke-width:10.8073;fill:#ffffff"
         x="619.76636"
         y="577.64508">ALVISTACK</tspan><tspan
         style="font-style:normal;font-variant:normal;font-weight:500;font-stretch:normal;font-size:219.084px;font-family:Ubuntu;-inkscape-font-specification:'Ubuntu Medium';text-align:center;letter-spacing:1.98506px;text-anchor:middle;stroke-width:10.8073;fill:#ffffff"
         sodipodi:role="line"
         id="tspan1150-6-9-7-8-4-0-5-2-2-4-9-7-5-0"
         x="619.76636"
         y="791.48303" /></text>
  </g>
</svg>
