<?xml version="1.0" encoding="UTF-8" standalone="no"?>
<svg
   width="740.37195mm"
   height="132.29167mm"
   viewBox="0 0 740.37195 132.29167"
   version="1.1"
   id="svg1143"
   inkscape:export-filename="/home/skerung9d/Desktop/parah/logo 1.png"
   inkscape:export-xdpi="300"
   inkscape:export-ydpi="300"
   inkscape:version="1.1 (1:1.1+202105261517+ce6663b3b7)"
   sodipodi:docname="alvistack-horizontal-white.svg"
   xmlns:inkscape="http://www.inkscape.org/namespaces/inkscape"
   xmlns:sodipodi="http://sodipodi.sourceforge.net/DTD/sodipodi-0.dtd"
   xmlns="http://www.w3.org/2000/svg"
   xmlns:svg="http://www.w3.org/2000/svg"
   xmlns:rdf="http://www.w3.org/1999/02/22-rdf-syntax-ns#"
   xmlns:cc="http://creativecommons.org/ns#"
   xmlns:dc="http://purl.org/dc/elements/1.1/">
  <defs
     id="defs1137" />
  <sodipodi:namedview
     id="base"
     pagecolor="#ffffff"
     bordercolor="#666666"
     borderopacity="1.0"
     inkscape:pageopacity="0"
     inkscape:pageshadow="2"
     inkscape:zoom="0.0625"
     inkscape:cx="-1792"
     inkscape:cy="872"
     inkscape:document-units="mm"
     inkscape:current-layer="layer2"
     inkscape:document-rotation="0"
     showgrid="false"
     inkscape:snap-grids="false"
     inkscape:snap-to-guides="false"
     inkscape:window-width="1920"
     inkscape:window-height="1016"
     inkscape:window-x="0"
     inkscape:window-y="27"
     inkscape:window-maximized="1"
     showguides="true"
     inkscape:guide-bbox="true"
     inkscape:pagecheckerboard="0"
     height="101mm"
     width="318mm" />
  <metadata
     id="metadata1140">
    <rdf:RDF>
      <cc:Work
         rdf:about="">
        <dc:format>image/svg+xml</dc:format>
        <dc:type
           rdf:resource="http://purl.org/dc/dcmitype/StillImage" />
      </cc:Work>
    </rdf:RDF>
  </metadata>
  <g
     inkscape:groupmode="layer"
     id="layer2"
     inkscape:label="VERTICAL"
     style="display:inline"
     transform="translate(-275.73592,-368.76779)">
    <g
       id="g178"
       transform="matrix(0.50000063,0,0,0.50000063,137.86779,184.38366)"
       style="stroke-width:2"
       inkscape:export-filename="/home/hswong3i/Documents/alvistack/ansible-collection-kubernetes/docs/images/horizontal/white/alvistack-horizontal-white.png"
       inkscape:export-xdpi="96.000008"
       inkscape:export-ydpi="96.000008">
      <path
         d="m 487.83888,507.35566 c -18.72626,-32.85547 -48.80997,-58.37592 -84.94422,-71.18684 -0.43943,-0.16901 -2.42776,-1.18152 -5.91534,-1.14927 -6.6249,0.0613 -12.2363,4.19144 -14.39962,10.00537 l -54.01138,169.46439 c -3.4816,10.91802 -13.68978,18.86148 -25.75706,18.86148 -14.97425,0 -27.07534,-12.13489 -27.07534,-27.04154 0,-12.7012 35.82724,-129.35677 56.41132,-184.16823 2.3179,-6.17212 5.11717,-12.16008 8.01105,-18.08403 0.62838,-1.28633 2.02812,-3.78581 2.02812,-3.78581 0,0 1.21409,-1.99933 1.8591,-2.97457 0.78111,-1.18103 1.57181,-2.3582 2.43374,-3.4816 1.29003,-1.68137 2.60275,-3.27879 4.09003,-4.86748 8.31528,-8.99131 19.2333,-15.51508 31.53719,-18.42204 4.73227,-1.14927 9.66735,-1.7577 14.73764,-1.7577 4.86748,0 9.49071,0.64347 14.1292,1.62249 3.30213,0.69696 7.84205,2.12952 9.66735,3.00837 0.16901,0.0676 2.29132,0.98098 3.414,1.52109 0.97181,0.46753 1.92175,0.9795 2.87316,1.48728 0.68067,0.36328 1.35208,0.70984 2.02812,1.11547 0.91265,0.54083 1.81891,1.10168 2.70415,1.69009 0.39052,0.25957 0.77744,0.54083 1.14926,0.81125 1.28448,0.84505 2.49405,1.77656 3.68441,2.73795 15.82412,12.78026 24.40499,39.37924 24.40499,39.37924 z"
         style="fill:#ffffff;fill-opacity:1;fill-rule:nonzero;stroke:none;stroke-width:6.76037"
         id="path84-1-8-8-9-7-3"
         sodipodi:nodetypes="ccsccssaacaaccsacaacacscc" />
      <path
         d="m 515.79519,606.30925 c 0,14.90665 -12.13489,27.04154 -27.07534,27.04154 -6.01674,0 -11.62786,-1.96052 -16.12351,-5.30691 -4.49566,-3.38019 -7.94345,-8.07865 -9.66735,-13.55457 h -0.0338 L 436.6987,531.5732 c 32.72026,9.26173 51.71693,21.76844 71.93048,49.38461 v 0.0338 c 0.57464,1.11547 1.08166,2.23093 1.55489,3.34639 0,0 3.23338,9.05335 4.32665,13.72358 0.63418,2.70913 1.28447,5.3407 1.28447,8.24767"
         style="fill:#ffffff;fill-opacity:1;fill-rule:nonzero;stroke:none;stroke-width:6.76037"
         id="path88-5-2-6-4-1-9"
         sodipodi:nodetypes="cscccccccac" />
      <path
         d="m 508.12497,576.61082 v 0.0338 c -20.21355,-27.61617 -39.21023,-40.12288 -71.93049,-49.3846 0,0 -22.54588,-71.11924 -24.20217,-76.45995 -0.23661,-0.70984 -1.11546,-3.81961 -2.36613,-5.57731 -1.5887,-2.29853 -3.95483,-4.09004 -6.65898,-5.1717 36.13425,12.81093 66.21796,38.33138 84.94422,71.18685 0,0 20.17975,64.69687 20.21355,65.37291"
         style="fill:#ffffff;fill-opacity:1;fill-rule:nonzero;stroke:none;stroke-width:6.76037"
         id="path92-1-2-6-1-9-4"
         sodipodi:nodetypes="cccccccc" />
      <path
         d="m 738.72897,577.64508 q -3.06718,-8.98244 -6.35344,-17.7458 -3.28626,-8.76336 -6.35343,-17.96489 h -63.97253 q -3.06718,9.20153 -6.35344,18.18397 -3.06717,8.76336 -6.13435,17.52672 h -28.7 q 8.54427,-24.31832 16.21221,-44.91222 7.66794,-20.5939 14.89772,-38.99695 7.44885,-18.40306 14.67862,-35.05344 7.22978,-16.65039 14.89772,-32.8626 h 26.07099 q 7.66794,16.21221 14.89771,32.8626 7.22978,16.65038 14.45955,35.05344 7.44885,18.40305 15.11679,38.99695 7.88703,20.5939 16.4313,44.91222 z M 694.03583,455.17712 q -5.03893,11.61146 -11.61145,28.26184 -6.35343,16.65038 -13.36412,36.14886 h 49.95115 q -7.01069,-19.49848 -13.58321,-36.36794 -6.57252,-16.86947 -11.39237,-28.04276 z"
         style="font-weight:500;font-size:219.084px;line-height:0.91;font-family:Ubuntu;-inkscape-font-specification:'Ubuntu Medium';text-align:start;letter-spacing:1.98506px;text-anchor:start;fill:#ffffff;stroke-width:21.6146"
         id="path29" />
      <path
         d="m 885.74723,553.76492 v 23.88016 h -95.9588 V 425.81987 h 27.60459 v 127.94505 z"
         style="font-weight:500;font-size:219.084px;line-height:0.91;font-family:Ubuntu;-inkscape-font-specification:'Ubuntu Medium';text-align:start;letter-spacing:1.98506px;text-anchor:start;fill:#ffffff;stroke-width:21.6146"
         id="path31" />
      <path
         d="m 932.42506,577.64508 q -16.4313,-35.49161 -31.76718,-74.26948 -15.11679,-38.77786 -28.26183,-77.55573 h 30.45267 q 5.25802,15.33588 10.73512,31.32901 5.4771,15.99313 10.9542,31.5481 5.4771,15.33588 10.9542,29.79542 5.4771,14.45954 10.73511,26.50916 5.03894,-12.04962 10.51604,-26.29008 5.4771,-14.45954 10.9542,-30.0145 5.69618,-15.55497 11.17328,-31.5481 5.4771,-15.99313 10.51603,-31.32901 h 29.5763 q -13.3641,38.77787 -28.48088,77.55573 -15.11679,38.77787 -31.54809,74.26948 z"
         style="font-weight:500;font-size:219.084px;line-height:0.91;font-family:Ubuntu;-inkscape-font-specification:'Ubuntu Medium';text-align:start;letter-spacing:1.98506px;text-anchor:start;fill:#ffffff;stroke-width:21.6146"
         id="path33" />
      <path
         d="m 1040.6656,425.81987 h 27.6046 v 151.82521 h -27.6046 z"
         style="font-weight:500;font-size:219.084px;line-height:0.91;font-family:Ubuntu;-inkscape-font-specification:'Ubuntu Medium';text-align:start;letter-spacing:1.98506px;text-anchor:start;fill:#ffffff;stroke-width:21.6146"
         id="path35" />
      <path
         d="m 1143.4292,557.05118 q 14.8977,0 21.6893,-5.03893 6.7917,-5.03893 6.7917,-14.24046 0,-5.4771 -2.41,-9.42061 -2.1908,-3.94351 -6.5725,-7.01069 -4.1626,-3.28626 -10.2969,-5.91527 -6.1344,-2.84809 -14.0214,-5.4771 -7.887,-2.84809 -15.3359,-6.13435 -7.2298,-3.50534 -12.926,-8.54427 -5.4771,-5.03894 -8.9824,-12.04962 -3.2863,-7.01069 -3.2863,-16.86947 0,-20.5939 14.2405,-32.20535 14.2405,-11.83054 38.7779,-11.83054 14.2404,0 25.1946,3.28626 11.1733,3.06718 17.5268,6.79161 l -8.5443,22.34657 q -7.4489,-4.1626 -16.4313,-6.35344 -8.7634,-2.19084 -18.184,-2.19084 -11.1733,0 -17.5267,4.60076 -6.1344,4.60077 -6.1344,12.92596 0,5.03893 1.9718,8.76336 2.1908,3.50534 5.9153,6.35344 3.9435,2.84809 8.9824,5.25801 5.258,2.40993 11.3924,4.60077 10.7351,3.94351 19.0603,8.1061 8.5443,3.94352 14.2404,9.6397 5.9153,5.4771 8.9825,13.14504 3.0672,7.44886 3.0672,18.18397 0,20.5939 -14.6787,31.98627 -14.4595,11.17328 -42.5023,11.17328 -9.4206,0 -17.3076,-1.3145 -7.6679,-1.09542 -13.8023,-2.8481 -5.9153,-1.75267 -10.2969,-3.50534 -4.3817,-1.97176 -7.0107,-3.50534 l 8.1061,-22.56566 q 5.9152,3.28626 15.9931,6.57252 10.0779,3.28626 24.3183,3.28626 z"
         style="font-weight:500;font-size:219.084px;line-height:0.91;font-family:Ubuntu;-inkscape-font-specification:'Ubuntu Medium';text-align:start;letter-spacing:1.98506px;text-anchor:start;fill:#ffffff;stroke-width:21.6146"
         id="path37" />
      <path
         d="m 1332.7309,425.81987 v 23.88015 h -46.6649 v 127.94506 h -27.8236 V 449.70002 h -46.6649 v -23.88015 z"
         style="font-weight:500;font-size:219.084px;line-height:0.91;font-family:Ubuntu;-inkscape-font-specification:'Ubuntu Medium';text-align:start;letter-spacing:1.98506px;text-anchor:start;fill:#ffffff;stroke-width:21.6146"
         id="path39" />
      <path
         d="m 1444.0383,577.64508 q -3.0672,-8.98244 -6.3534,-17.7458 -3.2863,-8.76336 -6.3535,-17.96489 h -63.9725 q -3.0672,9.20153 -6.3534,18.18397 -3.0672,8.76336 -6.1344,17.52672 h -28.7 q 8.5443,-24.31832 16.2122,-44.91222 7.668,-20.5939 14.8977,-38.99695 7.4489,-18.40306 14.6787,-35.05344 7.2297,-16.65039 14.8977,-32.8626 h 26.071 q 7.6679,16.21221 14.8977,32.8626 7.2298,16.65038 14.4595,35.05344 7.4489,18.40305 15.1168,38.99695 7.887,20.5939 16.4313,44.91222 z m -44.6931,-122.46796 q -5.039,11.61146 -11.6115,28.26184 -6.3534,16.65038 -13.3641,36.14886 h 49.9511 q -7.0107,-19.49848 -13.5832,-36.36794 -6.5725,-16.86947 -11.3923,-28.04276 z"
         style="font-weight:500;font-size:219.084px;line-height:0.91;font-family:Ubuntu;-inkscape-font-specification:'Ubuntu Medium';text-align:start;letter-spacing:1.98506px;text-anchor:start;fill:#ffffff;stroke-width:21.6146"
         id="path41" />
      <path
         d="m 1558.8512,580.93134 q -17.0886,0 -30.6718,-5.25802 -13.5832,-5.25801 -23.0038,-15.33588 -9.4206,-10.29694 -14.4595,-24.97557 -5.039,-14.67863 -5.039,-33.73894 0,-19.06031 5.6962,-33.73893 5.9153,-14.67863 15.9931,-24.7565 10.0779,-10.29694 23.6611,-15.55496 13.5832,-5.25802 29.1382,-5.25802 9.4206,0 17.0885,1.53359 7.668,1.31451 13.3642,3.06718 5.6961,1.75267 9.4206,3.72443 3.7244,1.97175 5.258,2.84809 l -8.1061,22.56565 q -5.258,-3.28626 -15.1168,-6.13435 -9.6397,-3.06718 -21.0321,-3.06718 -9.8588,0 -18.403,3.50535 -8.5443,3.28626 -14.8978,10.07786 -6.1343,6.7916 -9.6396,17.08855 -3.5054,10.29695 -3.5054,23.88016 0,12.04962 2.629,22.12748 2.8481,10.07787 8.5443,17.52672 5.6962,7.22977 14.4595,11.39237 8.7634,3.94351 21.0321,3.94351 14.6786,0 23.8802,-2.84809 9.2015,-3.06718 14.2404,-5.69618 l 7.4489,22.56565 q -2.629,1.75267 -7.2298,3.50534 -4.3817,1.75267 -10.516,3.50535 -6.1344,1.53358 -13.8023,2.40992 -7.668,1.09542 -16.4313,1.09542 z"
         style="font-weight:500;font-size:219.084px;line-height:0.91;font-family:Ubuntu;-inkscape-font-specification:'Ubuntu Medium';text-align:start;letter-spacing:1.98506px;text-anchor:start;fill:#ffffff;stroke-width:21.6146"
         id="path43" />
      <path
         d="m 1723.8344,577.64508 q -5.6962,-8.76336 -13.145,-18.40306 -7.4489,-9.63969 -15.7741,-18.62214 -8.1061,-8.98244 -16.8695,-17.08855 -8.7633,-8.10611 -17.3076,-14.02137 v 68.13512 h -27.6046 V 425.81987 h 27.6046 v 62.65802 q 7.2298,-7.22977 15.1168,-15.33588 7.887,-8.32519 15.555,-16.65038 7.887,-8.54428 14.8977,-16.4313 7.0107,-7.88703 12.7068,-14.24046 h 33.0817 q -7.2297,8.32519 -15.3359,17.30763 -8.1061,8.98245 -16.6503,18.18398 -8.5443,8.98244 -17.3077,17.96488 -8.5442,8.98245 -16.8694,17.08856 9.2015,7.01068 18.6221,16.4313 9.6397,9.20152 18.8412,19.93664 9.2016,10.51603 17.5267,22.12748 8.5443,11.39237 15.555,22.78474 z"
         style="font-weight:500;font-size:219.084px;line-height:0.91;font-family:Ubuntu;-inkscape-font-specification:'Ubuntu Medium';text-align:start;letter-spacing:1.98506px;text-anchor:start;fill:#ffffff;stroke-width:21.6146"
         id="path45" />
    </g>
  </g>
</svg>
