<?xml version="1.0" encoding="UTF-8" standalone="no"?>
<svg
   width="1500mm"
   height="1500mm"
   viewBox="0 0 1500 1500"
   version="1.1"
   id="svg1143"
   inkscape:export-filename="/home/skerung9d/Desktop/parah/logo 1.png"
   inkscape:export-xdpi="300"
   inkscape:export-ydpi="300"
   inkscape:version="1.1 (c68e22c387, 2021-05-23)"
   sodipodi:docname="alvistack-stacked-color.svg.svg"
   xmlns:inkscape="http://www.inkscape.org/namespaces/inkscape"
   xmlns:sodipodi="http://sodipodi.sourceforge.net/DTD/sodipodi-0.dtd"
   xmlns="http://www.w3.org/2000/svg"
   xmlns:svg="http://www.w3.org/2000/svg"
   xmlns:rdf="http://www.w3.org/1999/02/22-rdf-syntax-ns#"
   xmlns:cc="http://creativecommons.org/ns#"
   xmlns:dc="http://purl.org/dc/elements/1.1/">
  <defs
     id="defs1137" />
  <sodipodi:namedview
     id="base"
     pagecolor="#ffffff"
     bordercolor="#666666"
     borderopacity="1.0"
     inkscape:pageopacity="0"
     inkscape:pageshadow="2"
     inkscape:zoom="0.044194174"
     inkscape:cx="1074.8023"
     inkscape:cy="4559.4245"
     inkscape:document-units="mm"
     inkscape:current-layer="layer2"
     inkscape:document-rotation="0"
     showgrid="false"
     inkscape:snap-grids="false"
     inkscape:snap-to-guides="false"
     inkscape:window-width="1920"
     inkscape:window-height="1017"
     inkscape:window-x="-8"
     inkscape:window-y="-8"
     inkscape:window-maximized="1"
     showguides="true"
     inkscape:guide-bbox="true"
     inkscape:pagecheckerboard="0"
     height="101mm"
     width="318mm" />
  <metadata
     id="metadata1140">
    <rdf:RDF>
      <cc:Work
         rdf:about="">
        <dc:format>image/svg+xml</dc:format>
        <dc:type
           rdf:resource="http://purl.org/dc/dcmitype/StillImage" />
      </cc:Work>
    </rdf:RDF>
  </metadata>
  <g
     inkscape:groupmode="layer"
     id="layer2"
     inkscape:label="VERTICAL"
     style="display:inline">
    <text
       style="font-variant:normal;font-weight:bold;font-stretch:normal;font-size:9.37892px;line-height:0.91;font-family:Ubuntu;-inkscape-font-specification:Ubuntu-Bold;text-align:center;writing-mode:lr-tb;text-anchor:middle;display:inline;fill:#000000;fill-opacity:1;fill-rule:nonzero;stroke:none;stroke-width:0.1;stroke-miterlimit:4;stroke-dasharray:none"
       id="text32-0-4-2-3-2-5-4-8-8-2-5-0-2-7-5-8-2-8-0"
       x="148.55606"
       y="272.29227"><tspan
         sodipodi:role="line"
         id="tspan14-3-7-1-6-2-5-43-4-48-0-5-93-3-09-7-8-6-4-1"
         style="font-style:normal;font-variant:normal;font-weight:500;font-stretch:normal;font-size:9.37892px;font-family:Ubuntu;-inkscape-font-specification:'Ubuntu Medium';text-align:center;letter-spacing:0.08498px;text-anchor:middle;stroke-width:0.1;stroke-miterlimit:4;stroke-dasharray:none"
         x="148.55606"
         y="272.29227" /><tspan
         style="font-style:normal;font-variant:normal;font-weight:500;font-stretch:normal;font-size:9.37892px;font-family:Ubuntu;-inkscape-font-specification:'Ubuntu Medium';text-align:center;letter-spacing:0.08498px;text-anchor:middle;stroke-width:0.1;stroke-miterlimit:4;stroke-dasharray:none"
         sodipodi:role="line"
         id="tspan1150-6-9-7-8-4-0-5-1-29-4-6-7-3-4-9-7-3-0"
         x="148.55606"
         y="281.44659" /></text>
    <g
       id="g541"
       transform="matrix(12.525447,0,0,12.525447,-1249.9774,-513.36895)"
       inkscape:export-filename="C:\Users\skerung9d\Desktop\PANTAREI\lOGO\output\stacked.png"
       inkscape:export-xdpi="300"
       inkscape:export-ydpi="300">
      <text
         style="font-variant:normal;font-weight:bold;font-stretch:normal;font-size:14.6056px;line-height:0;font-family:Ubuntu;-inkscape-font-specification:Ubuntu-Bold;text-align:center;writing-mode:lr-tb;text-anchor:middle;display:inline;fill:#000000;fill-opacity:1;fill-rule:nonzero;stroke:none;stroke-width:0.720486"
         id="text32-0-4-2-3-2-5-4-8-1-9-2-5-8-3-0-8-5-2-7-8"
         x="122.66544"
         y="135.08316"><tspan
           style="font-style:normal;font-variant:normal;font-weight:500;font-stretch:normal;font-size:14.6056px;line-height:1.5;font-family:Ubuntu;-inkscape-font-specification:'Ubuntu Medium';text-align:start;letter-spacing:0.132337px;text-anchor:start;fill:#000000;fill-opacity:1;stroke-width:0.720486"
           sodipodi:role="line"
           id="tspan168067-6-7-6"
           x="122.66544"
           y="135.08316">ALVI<tspan
   style="fill:#000000"
   id="tspan230072-8">STACK</tspan></tspan><tspan
           style="font-style:normal;font-variant:normal;font-weight:500;font-stretch:normal;font-size:14.6056px;line-height:0.91;font-family:Ubuntu;-inkscape-font-specification:'Ubuntu Medium';text-align:center;letter-spacing:0.132337px;text-anchor:middle;fill:#000000;fill-opacity:1;stroke-width:0.720486"
           sodipodi:role="line"
           id="tspan1150-6-9-7-8-4-0-5-2-2-4-9-7-5-09-5-2-4-1-7"
           x="122.66544"
           y="147.00214" /></text>
      <g
         id="g1499-0-6-0-2-1-93-1-8-4-1"
         transform="matrix(1.9775874,0,0,1.9775874,-146.6854,-405.05916)"
         style="display:inline">
        <g
           id="g125763-3-0-7-74-4-0-6-5"
           transform="translate(-3.296626)">
          <g
             id="g82-2-9-7-6-7-52-5-4-0-4"
             transform="matrix(0.35277777,0,0,-0.35277777,167.69641,252.93496)">
            <path
               d="m 0,0 c -5.54,9.72 -14.44,17.27 -25.13,21.06 -0.13,0.05 -0.25,0.1 -0.38,0.14 0,0 -0.432714,0.214584 -1.41,0.2 -1.959782,-0.02924 -3.58,-1.24 -4.22,-2.96 l -15.1,-47.71 c -1.03,-3.23 -4.05,-5.58 -7.62,-5.58 -4.43,0 -8.01,3.59 -8.01,8 0,0.85 0.14,1.67 0.38,2.44 l 15.43,49.62 c 0.69,2.17 2.716027,6.072228 3.79,7.75 0.476837,0.744919 1.22,1.6 1.66,2.07 2.46,2.66 5.69,4.59 9.33,5.45 1.4,0.34 2.86,0.52 4.36,0.52 1.44,0 2.83,-0.21 4.18,-0.52 0.879126,-0.216962 3.840262,-1.289016 4.32,-1.53 0.338519,-0.170046 0.674192,-0.346712 1,-0.54 0.389632,-0.231152 0.767999,-0.481427 1.14,-0.74 0.371699,-0.258363 0.737841,-0.52558 1.09,-0.81 4.681424,-3.780927 7.22,-11.65 7.22,-11.65 z"
               style="fill:#b12029;fill-opacity:1;fill-rule:nonzero;stroke:none"
               id="path84-1-8-8-5-4-5-8-9-1-8"
               sodipodi:nodetypes="cccsccssccsccscaaascc" />
          </g>
          <g
             id="g86-0-7-8-9-1-47-5-7-4-7"
             transform="matrix(0.35277777,0,0,-0.35277777,170.55395,262.40691)">
            <path
               d="m 0,0 c 0,-4.41 -3.59,-8 -8.01,-8 -1.78,0 -3.44,0.58 -4.77,1.57 -1.33,1 -2.35,2.39 -2.86,4.01 h -0.01 L -23.4,22.11 C -13.72,19.37 -8.1,15.67 -2.12,7.5 V 7.49 c 0.17,-0.33 0.32,-0.66 0.46,-0.99 0,0 0.95656672,-2.6783537 1.28,-4.06 C -0.19238163,1.6385295 0,0.86 0,0"
               style="fill:#ea6953;fill-opacity:1;fill-rule:nonzero;stroke:none"
               id="path88-5-2-6-5-1-4-41-1-3-2"
               sodipodi:nodetypes="cscccccccac" />
          </g>
          <g
             id="g90-1-8-04-6-9-4-9-5-5-1"
             transform="matrix(0.35277777,0,0,-0.35277777,169.80602,259.75762)">
            <path
               d="m 0,0 v -0.01 c -5.98,8.17 -11.6,11.87 -21.28,14.61 0,0 -6.67,21.04 -7.16,22.62 -0.07,0.21 -0.33,1.13 -0.7,1.65 -0.47,0.68 -1.17,1.21 -1.97,1.53 10.69,-3.79 19.59,-11.34 25.13,-21.06 0,0 5.97,-19.14 5.98,-19.34"
               style="fill:#cb3725;fill-opacity:1;fill-rule:nonzero;stroke:none"
               id="path92-1-2-6-11-1-30-2-7-6-6"
               sodipodi:nodetypes="cccccccc" />
          </g>
        </g>
      </g>
    </g>
  </g>
</svg>
